<svg width="16" height="20" viewBox="0 0 16 20" fill="none" xmlns="http://www.w3.org/2000/svg">
<path d="M8 6V0H2C0.89543 0 0 0.89543 0 2V18C0 19.1046 0.89543 20 2 20H14C15.1046 20 16 19.1046 16 18V8H10C8.8954 8 8 7.10457 8 6ZM4.25 9.5H11.75C12.1642 9.5 12.5 9.8358 12.5 10.25C12.5 10.6642 12.1642 11 11.75 11H4.25C3.83579 11 3.5 10.6642 3.5 10.25C3.5 9.8358 3.83579 9.5 4.25 9.5ZM4.25 12.25H11.75C12.1642 12.25 12.5 12.5858 12.5 13C12.5 13.4142 12.1642 13.75 11.75 13.75H4.25C3.83579 13.75 3.5 13.4142 3.5 13C3.5 12.5858 3.83579 12.25 4.25 12.25ZM4.25 15H11.75C12.1642 15 12.5 15.3358 12.5 15.75C12.5 16.1642 12.1642 16.5 11.75 16.5H4.25C3.83579 16.5 3.5 16.1642 3.5 15.75C3.5 15.3358 3.83579 15 4.25 15ZM9.5 6V0.5L15.5 6.5H10C9.7239 6.5 9.5 6.27614 9.5 6Z" fill="#3A3A3A"/>
</svg>
