<svg width="17" height="19" viewBox="0 0 17 19" fill="none" xmlns="http://www.w3.org/2000/svg">
<path d="M11.3048 14.1097H15.9797L14.666 12.7961C14.4896 12.6196 14.3497 12.4102 14.2542 12.1796C14.1588 11.9491 14.1097 11.702 14.1097 11.4525V8.49983C14.1099 7.33946 13.7503 6.20758 13.0805 5.26002C12.4108 4.31246 11.4637 3.59582 10.3698 3.20877V2.88994C10.3698 2.394 10.1728 1.91837 9.8221 1.56768C9.47141 1.21699 8.99578 1.01998 8.49983 1.01998C8.00389 1.01998 7.52826 1.21699 7.17757 1.56768C6.82688 1.91837 6.62987 2.394 6.62987 2.88994V3.20877C4.45136 3.9792 2.88994 6.05766 2.88994 8.49983V11.4534C2.88994 11.9565 2.68986 12.4398 2.33363 12.7961L1.01998 14.1097H5.69489M11.3048 14.1097V15.0447C11.3048 15.7886 11.0093 16.5021 10.4832 17.0281C9.9572 17.5541 9.24375 17.8497 8.49983 17.8497C7.75592 17.8497 7.04247 17.5541 6.51644 17.0281C5.99041 16.5021 5.69489 15.7886 5.69489 15.0447V14.1097M11.3048 14.1097H5.69489" stroke="#3A3A3A" stroke-width="2" stroke-linecap="round" stroke-linejoin="round"/>
</svg>
